<?xml version="1.0" standalone="no"?>
<!DOCTYPE svg PUBLIC "-//W3C//DTD SVG 20010904//EN"
 "http://www.w3.org/TR/2001/REC-SVG-20010904/DTD/svg10.dtd">
<svg version="1.0" xmlns="http://www.w3.org/2000/svg"
 width="723.000000pt" height="675.000000pt" viewBox="0 0 723.000000 675.000000"
 preserveAspectRatio="xMidYMid meet">

<g transform="translate(0.000000,675.000000) scale(0.100000,-0.100000)"
fill="#000000" stroke="none">
<path d="M20 3426 l0 -3325 233 -6 c302 -8 6429 -8 6740 0 l237 6 0 3325 0
3324 -3605 0 -3605 0 0 -3324z m3779 3164 c80 -11 187 -28 236 -36 50 -9 113
-20 140 -24 298 -52 731 -242 1025 -450 268 -190 537 -439 713 -660 249 -312
518 -882 596 -1265 41 -204 71 -518 71 -745 -1 -179 -2 -199 -40 -449 -44
-297 -161 -758 -235 -926 -202 -455 -527 -875 -900 -1161 -290 -223 -368 -273
-588 -379 -255 -122 -479 -194 -782 -250 -184 -34 -475 -58 -607 -51 -140 7
-460 50 -613 82 -308 64 -706 235 -960 414 -325 227 -612 505 -796 770 -81
116 -96 146 -164 318 -29 75 -85 202 -123 282 -93 192 -151 357 -206 580 -48
197 -57 253 -81 505 -19 201 -19 287 1 450 8 72 19 180 24 240 22 287 107 627
237 955 85 214 108 260 211 410 118 174 189 262 344 430 200 215 455 429 643
537 103 60 304 159 393 194 42 17 96 41 119 54 24 13 45 20 48 15 3 -5 37 4
75 21 90 38 381 101 590 128 91 12 176 23 190 25 80 11 306 4 439 -14z m-2774
-6019 c3 -5 2 -12 -3 -15 -5 -3 -9 1 -9 9 0 17 3 19 12 6z m-534 -88 c13 -16
12 -17 -3 -4 -17 13 -22 21 -14 21 2 0 10 -8 17 -17z"/>
<path d="M3270 6490 c-424 -41 -745 -133 -1098 -316 -165 -85 -303 -171 -384
-241 -25 -21 -81 -64 -124 -95 -134 -97 -501 -496 -587 -638 -15 -25 -57 -88
-93 -140 -86 -126 -138 -236 -218 -465 -69 -201 -99 -313 -121 -460 -8 -49
-23 -146 -35 -215 -50 -306 -48 -718 6 -1038 14 -81 29 -172 35 -203 22 -131
102 -366 171 -503 33 -66 78 -171 108 -251 37 -100 118 -278 133 -290 7 -5 26
-32 42 -60 15 -27 31 -52 35 -55 3 -3 17 -21 30 -40 32 -46 122 -153 138 -163
6 -4 12 -15 12 -22 0 -8 6 -15 14 -15 7 0 21 -12 31 -26 69 -106 387 -375 610
-518 123 -79 383 -205 540 -261 171 -62 402 -119 589 -147 199 -29 577 -31
761 -5 403 58 807 194 1090 367 170 103 344 228 460 328 133 115 347 340 435
457 200 268 349 535 400 720 5 17 27 84 50 150 47 139 87 303 129 535 38 208
51 350 51 567 0 704 -205 1303 -650 1898 -303 406 -751 747 -1245 948 -196 80
-477 159 -645 183 -128 17 -540 26 -670 14z m678 -756 c35 -10 29 -53 -14 -95
-20 -18 -49 -52 -64 -75 -20 -28 -47 -50 -87 -69 -71 -33 -116 -70 -248 -199
-76 -74 -133 -120 -216 -171 -102 -62 -239 -175 -239 -196 0 -5 11 -24 24 -44
37 -54 42 -92 17 -126 l-21 -29 24 -47 c13 -27 51 -83 85 -126 33 -43 63 -87
66 -98 4 -10 9 -19 13 -19 4 0 48 32 97 71 50 40 124 94 165 122 41 28 110 77
154 109 43 32 126 83 185 113 79 41 133 78 212 147 58 51 149 130 202 175 54
46 122 118 158 165 34 46 76 99 93 119 17 19 65 76 106 127 41 51 77 92 81 92
4 0 10 -33 14 -74 6 -68 4 -79 -28 -162 -19 -49 -45 -124 -58 -167 l-24 -78
-30 8 c-43 10 -73 7 -92 -8 -9 -8 -67 -91 -129 -186 -123 -186 -229 -305 -304
-343 -63 -31 -184 -123 -213 -162 -14 -18 -38 -58 -54 -88 -80 -150 -119 -220
-153 -275 -20 -33 -50 -82 -65 -110 -40 -70 -109 -140 -163 -167 -68 -33 -207
-33 -274 0 -112 55 -185 159 -209 297 -21 123 -67 192 -259 390 -165 170 -164
168 -170 435 l-5 215 -37 24 c-23 14 -48 45 -65 77 -15 30 -31 54 -34 54 -3 0
-18 -45 -33 -100 -15 -55 -41 -131 -57 -168 -39 -87 -94 -229 -103 -267 -33
-139 -46 -140 -46 -2 0 129 23 218 120 462 109 275 142 326 247 379 41 21 118
20 165 -2 49 -23 119 -88 112 -105 -11 -29 14 -63 55 -76 46 -13 48 -17 25
-49 -15 -22 -14 -27 5 -72 12 -27 21 -58 21 -70 0 -20 -4 -21 -76 -18 l-76 3
6 -75 c9 -92 17 -104 69 -96 109 18 206 65 402 196 55 36 169 106 253 154 150
87 192 121 192 157 0 28 36 59 69 59 15 0 57 16 92 35 67 36 79 39 117 29z
m-521 -2244 c19 0 24 -4 19 -16 -3 -8 7 -41 23 -72 16 -31 45 -96 64 -144 20
-47 61 -137 92 -200 30 -62 55 -116 55 -119 0 -3 -29 -6 -65 -7 l-65 -1 -9 37
c-5 20 -11 46 -13 56 -4 23 -2 22 -142 27 l-110 4 -15 -57 -14 -56 -46 -4
c-25 -3 -48 -3 -50 -1 -6 4 37 118 87 228 106 236 132 299 132 317 0 14 5 18
16 14 9 -3 27 -6 41 -6z m-1269 -37 c58 -36 85 -84 79 -142 -9 -88 -72 -132
-199 -139 l-78 -5 0 -124 0 -124 -27 5 c-16 2 -37 5 -48 5 -20 1 -20 7 -17
282 l3 282 121 -6 c110 -5 125 -8 166 -34z m371 -235 c-1 -145 -4 -270 -6
-278 -3 -11 -17 -16 -46 -16 l-42 -1 -1 271 c-1 149 0 274 3 279 2 4 25 7 50
7 l45 0 -3 -262z m299 35 l-3 -228 113 -9 c109 -8 113 -10 108 -30 -3 -12 -6
-29 -6 -38 0 -16 -14 -18 -155 -18 l-155 0 0 208 c0 114 3 237 7 275 l6 67 44
0 45 0 -4 -227z m1312 182 l0 -45 -85 0 -85 0 0 -123 c0 -68 -3 -172 -7 -230
l-6 -107 -40 0 -40 0 8 229 7 229 -85 3 c-47 2 -87 6 -90 9 -2 3 -2 22 1 43
l4 37 209 0 209 0 0 -45z m498 3 l-3 -43 -122 -3 -123 -3 0 -69 0 -70 123 0
123 0 -5 -42 -6 -43 -117 -3 -118 -3 0 -69 0 -70 129 0 128 0 -5 -25 c-2 -14
1 -31 7 -38 6 -8 8 -17 4 -20 -3 -4 -87 -7 -186 -7 l-180 0 6 182 c4 99 7 223
7 275 l0 93 171 0 170 0 -3 -42z m462 10 c52 -26 60 -48 31 -77 -29 -29 -58
-26 -91 9 -23 25 -34 30 -57 24 -30 -7 -73 -47 -73 -69 0 -21 45 -52 103 -71
77 -25 143 -63 158 -91 17 -32 15 -102 -4 -139 -49 -94 -156 -120 -276 -68
-68 30 -76 47 -36 84 l25 24 33 -32 c55 -53 127 -40 163 30 8 16 13 36 10 43
-2 7 -52 36 -110 64 -66 32 -112 61 -123 77 -23 36 -22 111 2 148 42 64 162
85 245 44z m-1468 -875 c11 -9 18 -11 18 -5 0 7 10 12 21 12 17 0 20 -5 17
-25 -3 -14 -2 -28 3 -31 5 -2 32 -39 60 -80 29 -41 55 -71 59 -67 43 50 114
170 112 190 -3 22 -1 23 62 23 36 0 66 -2 66 -4 0 -2 -45 -70 -100 -152 l-100
-148 0 -128 0 -128 -40 0 -40 0 0 129 c0 120 -2 131 -23 158 -65 80 -177 248
-177 266 0 14 44 7 62 -10z m-289 -13 c32 -25 67 -97 67 -136 0 -16 -11 -45
-24 -64 l-24 -35 35 -37 c64 -66 51 -167 -27 -213 -29 -17 -57 -21 -167 -23
l-133 -4 0 266 0 266 124 0 c108 0 126 -2 149 -20z m-673 -1087 c-3 -124 -10
-218 -17 -234 -16 -37 -68 -77 -109 -85 -72 -13 -174 38 -174 87 0 22 35 69
52 69 4 0 8 -10 8 -22 0 -57 80 -79 125 -33 25 24 25 25 25 225 l0 200 48 0
47 0 -5 -207z m286 60 c-8 -157 2 -243 30 -274 40 -44 142 -30 171 24 15 27
18 60 18 214 l0 183 49 0 49 0 -5 -183 c-6 -209 -18 -253 -83 -302 -32 -25
-48 -29 -118 -33 -73 -3 -86 -1 -117 20 -20 13 -46 45 -60 73 -24 47 -25 60
-27 238 l-2 187 51 0 50 0 -6 -147z m634 -10 c0 -87 3 -188 7 -225 l6 -68 98
0 99 0 0 -35 c0 -19 0 -38 0 -41 0 -4 -70 -7 -156 -8 l-156 -1 6 50 c3 28 6
148 6 268 l0 217 45 0 45 0 0 -157z m480 -108 l0 -265 -56 0 -57 0 6 83 c4 45
7 164 7 265 l0 182 50 0 50 0 0 -265z m550 224 l0 -40 -122 2 -123 1 0 -73 0
-74 118 -3 117 -3 0 -34 c0 -40 12 -37 -142 -35 l-98 1 0 -75 0 -76 130 0 130
0 0 -39 0 -40 -177 -3 c-98 -2 -179 -3 -180 -3 0 0 1 120 4 268 l6 267 169 0
168 0 0 -41z"/>
<path d="M3355 3237 c-22 -45 -41 -85 -43 -89 -2 -5 37 -8 87 -8 50 0 91 2 91
5 0 3 -13 29 -29 59 -15 29 -33 68 -39 85 -6 17 -15 31 -19 31 -4 0 -26 -38
-48 -83z"/>
<path d="M1970 3325 l0 -75 49 0 c63 0 96 12 117 45 14 21 14 30 4 55 -14 33
-56 50 -127 50 l-43 0 0 -75z"/>
<path d="M3163 2489 c4 -13 7 -49 7 -80 l0 -55 54 6 c64 7 96 31 96 72 0 34
-31 68 -62 68 -13 0 -41 3 -62 7 -38 6 -39 5 -33 -18z"/>
<path d="M3165 2272 c-4 -4 5 -133 10 -149 7 -21 76 -15 120 10 34 19 40 28
43 61 5 58 -15 74 -100 78 -38 2 -71 2 -73 0z"/>
</g>
</svg>
