<?xml version="1.0" standalone="no"?>
<!DOCTYPE svg PUBLIC "-//W3C//DTD SVG 20010904//EN"
 "http://www.w3.org/TR/2001/REC-SVG-20010904/DTD/svg10.dtd">
<svg version="1.0" xmlns="http://www.w3.org/2000/svg"
 width="181.000000pt" height="171.000000pt" viewBox="0 0 181.000000 171.000000"
 preserveAspectRatio="xMidYMid meet">

<g transform="translate(0.000000,171.000000) scale(0.100000,-0.100000)"
fill="#000000" stroke="none">
<path d="M745 1596 c-160 -32 -271 -92 -391 -211 -77 -76 -98 -105 -137 -185
-65 -131 -81 -200 -81 -340 0 -140 16 -209 81 -340 39 -80 60 -109 137 -186
76 -76 106 -98 186 -137 52 -25 127 -54 165 -63 91 -22 258 -22 347 -1 272 66
489 283 555 555 21 89 21 256 -1 347 -9 39 -38 113 -63 165 -39 80 -61 110
-137 186 -77 77 -106 98 -186 137 -52 26 -122 54 -155 62 -86 22 -236 27 -320
11z m365 -50 c218 -77 383 -243 456 -461 38 -115 44 -267 15 -389 -50 -207
-183 -378 -371 -475 -124 -64 -176 -76 -335 -75 -127 0 -147 2 -220 28 -229
79 -388 239 -465 466 -31 91 -39 287 -16 385 60 254 266 467 520 536 107 29
312 21 416 -15z"/>
<path d="M956 1401 c-10 -4 -32 -20 -50 -35 -41 -37 -144 -96 -178 -103 -24
-5 -28 -2 -28 16 0 12 6 21 15 21 19 0 15 28 -8 64 -17 26 -57 35 -84 18 -18
-11 -65 -122 -71 -167 -6 -52 2 -43 30 32 20 52 26 59 39 50 10 -8 18 -33 21
-70 4 -51 9 -63 46 -100 24 -25 49 -63 58 -91 13 -38 24 -51 50 -62 56 -24 81
-7 144 97 19 31 55 72 80 91 25 19 58 53 73 76 16 23 35 42 43 42 15 0 44 60
44 93 0 16 -15 5 -64 -49 -35 -38 -81 -81 -102 -95 -22 -14 -72 -48 -112 -75
l-74 -49 -25 29 c-13 16 -22 35 -18 44 3 8 0 21 -6 28 -8 10 0 20 37 46 26 18
67 50 91 71 24 20 48 37 53 37 13 0 32 38 23 43 -5 3 -16 1 -27 -2z"/>
<path d="M480 814 c0 -47 3 -65 12 -62 7 3 13 15 13 29 0 19 6 25 27 27 61 7
39 72 -24 72 -28 0 -28 0 -28 -66z m67 30 c6 -17 -29 -27 -39 -12 -4 7 -8 17
-8 21 0 12 43 4 47 -9z"/>
<path d="M620 815 c0 -37 4 -65 10 -65 6 0 10 28 10 65 0 37 -4 65 -10 65 -6
0 -10 -28 -10 -65z"/>
<path d="M690 815 l0 -65 34 0 c19 0 38 5 41 10 4 6 -7 10 -24 10 -31 0 -31 0
-31 55 0 30 -4 55 -10 55 -6 0 -10 -28 -10 -65z"/>
<path d="M822 827 c-25 -61 -29 -92 -8 -64 17 22 62 22 75 0 5 -10 13 -15 17
-11 8 9 -38 120 -52 125 -6 2 -20 -20 -32 -50z m48 -19 c0 -5 -7 -8 -15 -8
-15 0 -20 21 -8 33 7 7 23 -11 23 -25z"/>
<path d="M930 870 c0 -5 9 -10 20 -10 18 0 20 -7 20 -55 0 -30 5 -55 10 -55 6
0 10 25 10 55 0 48 2 55 20 55 11 0 20 5 20 10 0 6 -22 10 -50 10 -27 0 -50
-4 -50 -10z"/>
<path d="M1070 815 l0 -65 39 0 c22 0 43 5 46 10 4 6 -8 10 -30 10 -29 0 -36
3 -33 18 2 10 15 19 33 21 l30 4 -30 6 c-42 9 -47 41 -6 41 17 0 31 5 31 10 0
6 -18 10 -40 10 l-40 0 0 -65z"/>
<path d="M1215 866 c-23 -17 -14 -43 21 -56 32 -13 26 -36 -10 -33 -14 1 -26
-2 -26 -7 0 -15 38 -22 60 -10 30 16 25 47 -10 65 -32 17 -31 40 1 32 23 -6
35 9 13 17 -22 9 -28 8 -49 -8z"/>
<path d="M770 611 c0 -33 5 -63 10 -66 17 -10 71 5 77 22 4 9 1 23 -5 33 -8
13 -8 20 0 28 18 18 -10 42 -48 42 l-34 0 0 -59z m60 24 c0 -8 -9 -15 -20 -15
-13 0 -18 5 -14 15 4 8 12 15 20 15 8 0 14 -7 14 -15z m6 -46 c9 -15 -11 -33
-30 -26 -9 4 -13 13 -10 22 7 17 30 20 40 4z"/>
<path d="M900 663 c0 -5 9 -19 20 -33 11 -14 20 -40 20 -57 0 -18 5 -33 10
-33 6 0 10 12 10 28 0 15 9 41 20 57 22 33 25 45 10 45 -5 0 -16 -12 -23 -27
l-14 -26 -18 26 c-16 26 -35 36 -35 20z"/>
<path d="M650 409 c0 -46 -2 -51 -20 -46 -13 3 -20 0 -20 -9 0 -21 48 -17 60
5 16 31 13 101 -5 101 -11 0 -15 -12 -15 -51z"/>
<path d="M720 412 c0 -54 12 -72 50 -72 38 0 50 18 50 72 0 62 -18 63 -22 1
-3 -44 -5 -48 -28 -48 -23 0 -25 4 -28 48 -4 62 -22 61 -22 -1z"/>
<path d="M880 400 l0 -60 35 0 c19 0 35 5 35 11 0 7 -10 9 -25 5 -24 -6 -25
-5 -25 49 0 30 -4 55 -10 55 -6 0 -10 -27 -10 -60z"/>
<path d="M990 400 c0 -47 3 -60 15 -60 12 0 15 13 15 60 0 47 -3 60 -15 60
-12 0 -15 -13 -15 -60z"/>
<path d="M1070 400 l0 -60 40 0 c22 0 40 5 40 10 0 6 -13 10 -30 10 -20 0 -30
5 -30 15 0 10 10 15 31 15 17 0 28 4 24 10 -3 6 -17 10 -31 10 -15 0 -24 6
-24 15 0 10 10 15 30 15 17 0 30 5 30 10 0 6 -18 10 -40 10 l-40 0 0 -60z"/>
</g>
</svg>
