<?xml version="1.0" standalone="no"?>
<!DOCTYPE svg PUBLIC "-//W3C//DTD SVG 20010904//EN"
 "http://www.w3.org/TR/2001/REC-SVG-20010904/DTD/svg10.dtd">
<svg version="1.0" xmlns="http://www.w3.org/2000/svg"
 width="362.000000pt" height="338.000000pt" viewBox="0 0 362.000000 338.000000"
 preserveAspectRatio="xMidYMid meet">

<g transform="translate(0.000000,338.000000) scale(0.100000,-0.100000)"
fill="#000000" stroke="none">
<path d="M1590 3278 c-101 -16 -255 -51 -295 -65 -257 -94 -411 -189 -585
-363 -293 -293 -414 -562 -455 -1015 -26 -279 22 -551 140 -800 24 -49 59
-126 79 -169 45 -99 124 -205 231 -310 311 -308 670 -449 1110 -433 314 11
585 106 830 289 306 229 502 526 586 888 47 203 64 381 49 525 -30 309 -109
540 -265 780 -175 270 -472 500 -781 606 -196 67 -473 96 -644 67z m452 -68
c264 -59 487 -174 684 -352 106 -96 148 -144 226 -258 125 -181 195 -341 246
-555 25 -102 27 -127 27 -335 0 -248 -13 -336 -76 -525 -140 -422 -500 -790
-907 -929 -163 -55 -270 -76 -427 -83 -345 -14 -666 86 -930 292 -90 71 -231
213 -293 295 -53 72 -215 414 -241 510 -64 234 -72 504 -25 779 46 271 166
502 375 725 240 255 520 401 869 450 139 20 346 14 472 -14z"/>
<path d="M1895 2835 c-29 -13 -56 -33 -62 -46 -6 -13 -37 -39 -69 -58 -33 -19
-102 -62 -154 -95 -96 -61 -197 -104 -210 -89 -4 4 -11 25 -14 45 -7 37 -7 37
31 40 28 2 37 7 33 18 -2 8 -4 30 -4 48 0 21 -4 32 -13 32 -8 0 -19 13 -24 30
-13 36 -65 70 -108 70 -23 0 -42 -10 -71 -37 -69 -67 -176 -381 -142 -415 9
-9 12 -9 12 0 0 7 20 68 45 135 25 67 48 128 50 135 3 9 17 1 40 -22 34 -35
35 -37 35 -119 0 -126 6 -142 75 -216 95 -101 132 -155 140 -203 22 -130 135
-202 240 -152 39 18 59 46 153 209 63 110 74 124 135 165 92 63 109 81 182
192 60 90 67 98 97 98 33 0 33 2 61 88 20 63 25 95 19 116 l-8 29 -54 -68
c-30 -37 -67 -84 -81 -104 -37 -51 -211 -198 -280 -237 -59 -33 -211 -138
-262 -180 -16 -13 -32 -24 -35 -24 -4 0 -26 28 -50 63 -36 53 -41 68 -36 95 4
21 1 40 -9 56 -15 23 -15 26 8 50 13 14 49 42 81 62 32 21 98 73 147 116 49
43 94 78 101 78 7 0 32 22 55 50 61 72 41 89 -54 45z"/>
<path d="M1644 1633 c-69 -158 -70 -162 -43 -160 15 1 26 11 33 30 10 27 13
28 70 25 55 -3 61 -5 66 -28 4 -19 13 -26 38 -28 18 -2 32 -2 32 0 0 18 -123
274 -132 276 -8 1 -33 -43 -64 -115z m96 -48 c0 -6 -17 -9 -40 -7 l-39 4 21
41 20 41 19 -35 c10 -18 18 -39 19 -44z"/>
<path d="M950 1605 c0 -127 1 -135 20 -135 16 0 19 8 22 58 3 52 5 57 28 60
102 11 142 71 85 127 -21 22 -33 25 -90 25 l-65 0 0 -135z m114 89 c19 -7 21
-35 4 -52 -7 -7 -27 -12 -45 -12 -31 0 -33 2 -33 35 0 32 2 35 29 35 16 0 36
-3 45 -6z"/>
<path d="M1230 1621 c0 -66 -3 -126 -6 -135 -5 -12 0 -16 20 -16 l26 0 0 135
c0 128 -1 135 -20 135 -19 0 -20 -7 -20 -119z"/>
<path d="M1370 1605 l0 -136 77 3 c64 2 78 6 81 20 3 14 -6 17 -50 20 l-53 3
-3 113 c-3 112 -3 112 -27 112 l-25 0 0 -135z"/>
<path d="M1860 1720 c0 -17 7 -20 44 -20 l43 0 -5 -115 c-5 -110 -4 -115 15
-115 26 0 33 33 33 146 l0 84 40 0 c33 0 40 3 40 20 0 19 -7 20 -105 20 -98 0
-105 -1 -105 -20z"/>
<path d="M2150 1605 l0 -135 86 0 c83 0 85 1 82 23 -3 20 -8 22 -63 22 l-60 0
-3 33 c-3 31 -2 32 35 32 57 0 83 10 83 31 0 17 -8 19 -61 19 l-60 0 3 33 3
32 60 1 c53 1 60 3 63 22 3 21 0 22 -82 22 l-86 0 0 -135z"/>
<path d="M2452 1730 c-29 -12 -47 -57 -33 -87 6 -12 33 -34 60 -47 61 -31 68
-42 45 -67 -21 -24 -60 -25 -73 -2 -8 14 -12 15 -25 4 -22 -18 -20 -26 9 -39
36 -17 96 -15 122 3 26 18 38 66 24 93 -6 11 -35 29 -65 42 -62 25 -74 43 -44
64 19 14 24 13 50 -2 22 -13 30 -14 40 -4 29 29 -60 63 -110 42z"/>
<path d="M1545 1292 c-3 -3 -5 -61 -5 -128 l0 -123 36 -7 c47 -9 102 1 125 22
24 21 25 71 2 96 -14 16 -14 22 -3 43 12 22 11 30 -3 60 -15 32 -21 35 -59 36
-24 0 -53 2 -66 3 -12 2 -24 0 -27 -2z m109 -48 c24 -23 4 -54 -34 -54 -28 0
-30 3 -30 35 0 30 3 35 24 35 14 0 32 -7 40 -16z m4 -106 c17 -17 15 -55 -4
-62 -9 -3 -27 -6 -40 -6 -21 0 -24 4 -24 40 0 37 2 40 28 40 15 0 33 -5 40
-12z"/>
<path d="M1794 1284 c3 -9 25 -43 49 -76 39 -57 42 -64 39 -119 -4 -58 -3 -59
22 -59 25 0 26 2 26 63 0 57 4 68 45 129 25 37 45 70 45 73 0 3 -13 5 -30 5
-22 0 -30 -5 -30 -17 0 -10 -13 -33 -28 -51 l-28 -34 -25 34 c-14 18 -28 40
-31 48 -3 9 -18 16 -33 18 -21 1 -26 -2 -21 -14z"/>
<path d="M1300 759 c0 -50 -5 -99 -10 -110 -13 -23 -55 -25 -64 -4 -7 19 -22
19 -30 0 -8 -22 33 -55 69 -55 20 0 39 8 53 23 20 21 22 34 22 130 0 100 -1
107 -20 107 -19 0 -20 -7 -20 -91z"/>
<path d="M1440 756 c0 -52 5 -106 11 -120 24 -51 116 -56 160 -10 20 22 24 37
27 124 l4 100 -26 0 -26 0 0 -93 c0 -101 -12 -127 -58 -127 -38 0 -54 39 -51
132 2 78 1 83 -19 86 -21 3 -22 0 -22 -92z"/>
<path d="M1750 720 l0 -130 75 0 c68 0 75 2 75 20 0 17 -7 20 -50 20 l-50 0 0
110 0 110 -25 0 -25 0 0 -130z"/>
<path d="M1987 843 c-3 -4 -6 -63 -6 -130 l-2 -123 28 0 28 0 -2 127 c-2 118
-4 128 -22 131 -10 2 -21 0 -24 -5z"/>
<path d="M2140 718 l0 -133 85 3 c76 3 85 5 85 23 0 17 -7 19 -60 19 l-60 0 0
35 0 35 55 0 c48 0 55 2 55 20 0 18 -7 20 -55 20 l-55 0 0 35 0 35 61 0 c52 0
60 2 57 18 -3 14 -16 17 -86 20 l-82 3 0 -133z"/>
</g>
</svg>
